<?xml version="1.0" encoding="UTF-8" standalone="no"?>
<!DOCTYPE svg PUBLIC "-//W3C//DTD SVG 1.1//EN" "http://www.w3.org/Graphics/SVG/1.1/DTD/svg11.dtd">
<svg width="100%" height="100%" viewBox="0 0 256 256" version="1.1" xmlns="http://www.w3.org/2000/svg" xmlns:xlink="http://www.w3.org/1999/xlink" xml:space="preserve" xmlns:serif="http://www.serif.com/" style="fill-rule:evenodd;clip-rule:evenodd;stroke-linejoin:round;stroke-miterlimit:2;">
    <g transform="matrix(0.8,0,0,1,6,0)">
        <path d="M55,63.805L55,250L5,250L5,50.014L55,63.805Z"/>
    </g>
    <g transform="matrix(0.8,0,0,0.978161,18.2,5.45967)">
        <path d="M116,80.63L116,250L66,250L66,66.839L116,80.63Z"/>
    </g>
    <g transform="matrix(1,0,0,0.0912863,127,227.178)">
        <rect x="5" y="9" width="40" height="241"/>
    </g>
    <g transform="matrix(1,0,0,0.0912863,188,227.178)">
        <rect x="5" y="9" width="40" height="241"/>
    </g>
    <g transform="matrix(0.837488,0.837488,-0.849607,0.849607,154.553,-136.286)">
        <path d="M178.143,158.419L146.179,158.419C143.32,158.419 141,156.132 141,153.314L141,143.105C141,140.287 143.32,138 146.179,138L178.143,138L178.143,106.492C178.143,103.675 180.463,101.387 183.321,101.387L193.679,101.387C196.537,101.387 198.857,103.675 198.857,106.492L198.857,138L230.821,138C233.68,138 236,140.287 236,143.105L236,153.314C236,156.132 233.68,158.419 230.821,158.419L198.857,158.419L198.857,189.927C198.857,192.745 196.537,195.032 193.679,195.032L183.321,195.032C180.463,195.032 178.143,192.745 178.143,189.927L178.143,158.419Z"/>
    </g>
    <g transform="matrix(1.00408,0,0,0.789474,-0.0204082,5.05263)">
        <path d="M250,14.5L250,33.5C250,38.743 246.653,43 242.53,43L12.47,43C8.347,43 5,38.743 5,33.5L5,14.5C5,9.257 8.347,5 12.47,5L242.53,5C246.653,5 250,9.257 250,14.5Z"/>
    </g>
</svg>
