<?xml version="1.0" encoding="UTF-8" standalone="no"?>
<!DOCTYPE svg PUBLIC "-//W3C//DTD SVG 1.1//EN" "http://www.w3.org/Graphics/SVG/1.1/DTD/svg11.dtd">
<svg width="100%" height="100%" viewBox="0 0 256 256" version="1.1" xmlns="http://www.w3.org/2000/svg" xmlns:xlink="http://www.w3.org/1999/xlink" xml:space="preserve" xmlns:serif="http://www.serif.com/" style="fill-rule:evenodd;clip-rule:evenodd;stroke-linejoin:round;stroke-miterlimit:2;">
    <g transform="matrix(0.914063,0,0,0.914063,26.675,11)">
        <path d="M-2.918,197.053C-3.199,196.891 -3.466,196.705 -3.716,196.499C-5.06,195.389 -5.835,193.734 -5.835,192C-5.835,191.356 -5.729,190.711 -5.513,190.09L49.912,30.09C50.377,28.75 51.304,27.642 52.508,26.947L107.934,-5.053C109.739,-6.095 111.963,-6.095 113.769,-5.053L169.194,26.947C170.398,27.642 171.325,28.747 171.79,30.09L227.216,190.09C227.224,190.114 227.232,190.137 227.24,190.161C227.555,191.11 227.613,192.084 227.45,193.007C227.22,194.321 226.545,195.518 225.542,196.394C225.26,196.641 224.952,196.862 224.62,197.053L113.769,261.053C112.888,261.562 111.886,261.835 110.851,261.835C109.816,261.835 108.814,261.562 107.934,261.053L-2.918,197.053ZM211.066,179.122L163.076,40.585L116.686,67.369L116.686,124.631L211.066,179.122ZM116.686,245.894L210.033,192L116.686,138.106L116.686,245.894ZM11.67,192L105.016,245.894L105.016,138.106L11.67,192Z"/>
    </g>
</svg>
